<?xml version="1.0" encoding="UTF-8"?>
<svg id="Layer_1" data-name="Layer 1" xmlns="http://www.w3.org/2000/svg" viewBox="0 0 1920 1080">
  <defs>
    <style>
      .cls-1 {
        font-family: AcuminConcept-SemiCond, 'Acumin Variable Concept';
        font-size: 30.57px;
        font-variation-settings: 'wght' 400, 'wdth' 90, 'slnt' 0;
      }

      .cls-2 {
        fill: #fff;
      }
    </style>
  </defs>
  <path d="M1386.59,613.59l-38.78-.02c8.15-15.3,7.48-38.94,6.27-56.31-.61-8.77-2.64-27.85-12.39-30.84-21.07-6.46-27,23.37-28.07,38.55-1.08,15.32-1.17,35.17,6.27,48.62h-37.23c1.36-6.24,4.11-11.03,4.72-17.66,1.42-15.38,1.42-46.38-.06-61.73-.46-4.75-3.2-8.37-3.11-13.08,10.59-.17,22.1-.4,31.78-4.65-.59,17.98,8.55,6.94,16.27,3.84,11.39-4.57,19.76-5.14,31.07,0,28.58,13.02,11.55,60.29,19.35,85.59.76,2.45.97,5.14,3.9,6.15v1.54Z"/>
  <path d="M799.49,518.02l1.58,3.09-16.18,10.25c-1.06,3.53,7.86,15.71,7.75,21.36-.1,5.19-7.59,18.86-12.18,22.23-12.59,9.23-26.02,10.07-41.24,9.55l-1.86,1.22c-1.38,1.96-1.05,7.16.08,9.38,3.37,6.64,55.85,11.02,60.96,33.44,9.17,40.23-62.93,42.99-86.09,28.53-15.67-9.79-14.49-25.96.58-35.53,2.28-1.45,12.96-4.96,12.95-5.66-.1-6.76-26.19-7.33-24.81-13.82l27.9-18.55c.54-2.11-15.6-12.13-18.4-17.14-6.77-12.11-3.31-29.15,7.2-37.58,4.4-3.53,18.36-11.93,23.66-8.51,4.01,3.98-3.96,7.31-6.05,11.04-7.25,12.93-5.66,50.85,15.93,48.31,17.91-2.11,19.06-32.58,13.36-45.46-2.3-5.21-11.76-11.76-8.37-14.66.22-.19,2.75-1.5,2.91-1.5h40.33ZM739.41,618.49c-7.26,1.77-17.79,14.27-15.71,22.51,4.56,18.01,35.53,19.08,49.07,12.33,8.96-4.47,10.4-15.5,2.61-21.94-3.89-3.22-31.9-13.88-35.97-12.89Z"/>
  <path d="M651.26,563.38l-5.48,2.56c-10.56,3.8-23.8,9.33-23.65,22.24.23,20.28,32.76,16.29,37.74,5.34,1.74-3.83,1.4-44.71.85-51.67-.87-11.1-2.18-20.9-15.93-18.92-17.68,2.55-12.31,29.99-28.37,30.63-13.94.56-15.52-14.07-7.77-23.27,11.76-13.96,46.69-15.52,62.94-10.03,7.47,2.52,10.23,11.46,10.86,18.5,2.14,24.09-1.16,52.01-.74,76.46-12.84,5.22-18.86-.21-28-7.83-13.25,7.71-24.15,13.65-39.84,8.77-22.03-6.86-22.05-28.03-4.9-40.85,4.76-3.55,38.33-15.97,42.3-11.94Z"/>
  <path d="M1014.32,616.68c-10.43-.19-20.57,3.01-25.09-8.96l-2.04-.45c-13.8,6.72-24.08,13.75-40.18,9.24-9.46-2.65-18.16-9.95-17.86-20.49.58-20.42,31.86-33.84,49.49-34.82l-.11,4.49c-9.6,1.9-24.67,11.86-24.6,22.47.14,20.22,35.65,16.27,38.33,4.29,1.98-8.89,1.18-41.72.39-52.13-.22-2.96-1.75-13.33-3.01-15.15-2.74-3.94-14.49-2.4-18.63-.08-11.97,6.73-6.05,29.34-24.15,28.48-15.54-.74-11.14-21.02-1.18-27.86,12.75-8.74,44.67-10.94,58.93-4.98,2.16.9,9.7,9.44,9.7,10.39v85.55Z"/>
  <path d="M1082.57,512.63c1.19,3.83,11.97,1.93,15.52,2.3v7.72s-12.98.21-12.98.21l-2.54,3.64c1.12,26.72-2.37,54.21,1.93,80.54,5.43,3.69,10.92,1.05,16.69.4-15.69,19.45-50.59,9.55-52.79-16.15-1.81-21.19,1.64-44.67-.16-66.12l-2.32-2.32-11.98-.43c-2.78-.25-3.75-7.29-1.63-7.51,14.76.28,26.73-8.99,35.41-20.15,5.85-7.52,8.2-17,14.87-22.99v40.85Z"/>
  <path d="M1255.83,597.71c-3.13,4.39-15.17,12.65-20.41,14.4-43.85,14.6-81.06-17.08-69.57-62.97,9.36-37.41,65.8-44.29,88.9-14.93,12.51,15.9,12.78,47.09,1.08,63.5ZM1212.54,519.88c-15.46,1.39-24.3,21.13-25.84,34.56-2.01,17.45,4.73,58.71,28.46,57.72,34.67-1.45,33.65-95.55-2.62-92.28Z"/>
  <path d="M574.28,605.41c1.73,2.04,7.12,4.16,8.81,7.42-17.45.98-34.42.33-51.18.74,4.84-5.42,12.01-10.35,13.61-18.06,1.82-8.75,1.26-39.16.33-48.96-1.3-13.75-12.56-15.26-24.8-14.67-.43-12.64,19.74-17.17,30.16-15.31,34.26,6.11,6.87,69.69,23.07,88.83Z"/>
  <path d="M468.32,613.58c-.72-.71,9.56-9.81,10.65-11.75,4.78-8.54,4.97-53.34.99-62.23-4.9-10.95-23.15-5.53-24.04-10.04,7.36-16.36,41.24-18.36,47.23-.68,4.5,13.27-1.4,44.71.94,60.72.99,6.76,4.29,12.19,8.53,16.94,2.19,2.45,4.43,4.11,6.88,6.28"/>
  <path d="M924.35,613.58c-7.11,1.25-47.14,2.75-49.62,0-2.22-2.47,6.25-5.53,8.27-8.11,7.52-9.59,8.76-62.21,1.01-69.7-4.65-4.49-21.56-3.03-21.66-6.17,9.45-18.17,45.96-18.69,48.12,4.54,1.68,18.02-4.23,51.27,3.31,66.07l10.57,13.38Z"/>
  <path d="M845.25,516.48v79.38c0,4.36,11.56,13.6,13.96,17.71-9.99,3.25-19.56.33-28.87.19-4.37-.07-10.38,1.22-15.05.71-1.93-.21-8.34.03-7.28-3.17,8.07-2.98,12.74-10.22,13.79-18.69,2.54-20.47-1.46-44.93.11-65.85l23.33-10.28Z"/>
  <path d="M438.85,595.87c5.16,7.34,9.38,11.66,13.96,17.71-17.31,0-32.38.64-51.19,0,5.19-6.02,12.49-10.69,13.86-19.35,3.17-19.98-2.33-46.77.3-67.52.45-1.29,17.9-9.87,19.45-10.01,2.06-.19,2.37.83,3.62,2.1v77.07Z"/>
  <path d="M1146.17,516.48v77.84c0,7.75,11.51,13.13,13.96,19.27h-51.19c26.8-19.77,11.32-58.24,15.76-86.85l21.47-10.26Z"/>
  <path d="M421.38,472.14c25.05-4.36,27.86,30.3,4.04,31.56-17.7.94-23.68-28.15-4.04-31.56Z"/>
  <path d="M843.31,475.25c1.29,1.22,5.13,10.56,5.13,12.71.03,19.81-35.52,20.95-32.76-3.12,1.48-12.9,19.68-17.09,27.63-9.59Z"/>
  <path d="M1144.14,475.34c15.87,13.93-6.41,37.78-22.05,24.22-16.5-14.3,6.34-38.01,22.05-24.22Z"/>
  <path class="cls-2" d="M739.41,618.49c4.07-.99,32.08,9.67,35.97,12.89,7.79,6.44,6.34,17.47-2.61,21.94-13.54,6.75-44.51,5.68-49.07-12.33-2.08-8.23,8.44-20.74,15.71-22.51Z"/>
  <path class="cls-2" d="M1212.54,519.88c36.27-3.27,37.29,90.82,2.62,92.28-23.73,1-30.47-40.27-28.46-57.72,1.54-13.43,10.39-33.17,25.84-34.56Z"/>
  <g>
    <path d="M1427.06,504.45c-.09,11.44-9.21,20.44-20.64,20.35-11.15-.08-20.17-9.3-20.08-20.53.09-11.27,9.3-20.3,20.62-20.2,11.04.09,20.19,9.36,20.11,20.38ZM1424.54,504.49c-.08-10.19-8.25-17.97-17.99-17.89-10.37.09-18.13,8.8-17.69,18.64.42,9.39,8.37,17.49,18.68,17.02,9.37-.43,16.92-8.13,17-17.78Z"/>
    <path d="M1403.11,506.94v8.21h-3.7v-21.38c.12-.02.25-.05.38-.05,2.57,0,5.14-.07,7.7.04,1.19.05,2.42.29,3.54.7,2.29.83,3.43,2.62,3.62,5.01.24,2.94-.88,5.15-3.6,6.45-.07.03-.13.08-.27.17,1.61,2.98,3.21,5.96,4.86,9.03-.24.03-.39.07-.53.07-1.02,0-2.03-.02-3.05,0-.37,0-.56-.11-.73-.44-1.25-2.44-2.54-4.86-3.79-7.31-.2-.4-.45-.53-.88-.52-1.15.03-2.3,0-3.56,0ZM1403.15,503.85c1.59,0,3.14.11,4.68-.03,1.97-.17,3.13-1.57,3.13-3.48,0-2.04-1.07-3.31-3.12-3.52-1.28-.13-2.58-.07-3.87-.1-.27,0-.54,0-.81,0v7.13Z"/>
  </g>
  <text class="cls-1" transform="translate(401.62 657.15)"><tspan x="0" y="0">Where We Creat Ideas</tspan></text>
</svg>