<?xml version="1.0" encoding="UTF-8"?>
<svg id="Layer_1" data-name="Layer 1" xmlns="http://www.w3.org/2000/svg" viewBox="0 0 1920 1080">
  <defs>
    <style>
      .cls-1 {
        font-family: AcuminConcept-SemiCond, 'Acumin Variable Concept';
        font-size: 30.57px;
        font-variation-settings: 'wght' 400, 'wdth' 90, 'slnt' 0;
      }

      .cls-2 {
        fill: #fff;
      }
    </style>
  </defs>
  <path d="M1145.81,508.02l1.58,3.09-16.18,10.25c-1.06,3.53,7.86,15.71,7.75,21.36-.1,5.19-7.59,18.86-12.18,22.23-12.59,9.23-26.02,10.07-41.24,9.55l-1.86,1.22c-1.38,1.96-1.05,7.16.08,9.38,3.37,6.64,55.85,11.02,60.96,33.44,9.17,40.23-62.93,42.99-86.09,28.53-15.67-9.79-14.49-25.96.58-35.53,2.28-1.45,12.96-4.96,12.95-5.66-.1-6.76-26.19-7.33-24.81-13.82l27.9-18.55c.54-2.11-15.6-12.13-18.4-17.14-6.77-12.11-3.31-29.15,7.2-37.58,4.4-3.53,18.36-11.93,23.66-8.51,4.01,3.98-3.96,7.31-6.05,11.04-7.25,12.93-5.66,50.85,15.93,48.31,17.91-2.11,19.06-32.58,13.36-45.46-2.3-5.21-11.76-11.76-8.37-14.66.22-.19,2.75-1.5,2.91-1.5h40.33ZM1085.73,608.49c-7.26,1.77-17.79,14.27-15.71,22.51,4.56,18.01,35.53,19.08,49.07,12.33,8.96-4.47,10.4-15.5,2.61-21.94-3.89-3.22-31.9-13.88-35.97-12.89Z"/>
  <path d="M997.58,553.38l-5.48,2.56c-10.56,3.8-23.8,9.33-23.65,22.24.23,20.28,32.76,16.29,37.74,5.34,1.74-3.83,1.4-44.71.85-51.67-.87-11.1-2.18-20.9-15.93-18.92-17.68,2.55-12.31,29.99-28.37,30.63-13.94.56-15.52-14.07-7.77-23.27,11.76-13.96,46.69-15.52,62.94-10.03,7.47,2.52,10.23,11.46,10.86,18.5,2.14,24.09-1.16,52.01-.74,76.46-12.84,5.22-18.86-.21-28-7.83-13.25,7.71-24.15,13.65-39.84,8.77-22.03-6.86-22.05-28.03-4.9-40.85,4.76-3.55,38.33-15.97,42.3-11.94Z"/>
  <path d="M920.6,595.41c1.73,2.04,7.12,4.16,8.81,7.42-17.45.98-34.42.33-51.18.74,4.84-5.42,12.01-10.35,13.61-18.06,1.82-8.75,1.26-39.16.33-48.96-1.3-13.75-12.56-15.26-24.8-14.67-.43-12.64,19.74-17.17,30.16-15.31,34.26,6.11,6.87,69.69,23.07,88.83Z"/>
  <path d="M814.64,603.58c-.72-.71,9.56-9.81,10.65-11.75,4.78-8.54,4.97-53.34.99-62.23-4.9-10.95-23.15-5.53-24.04-10.04,7.36-16.36,41.24-18.36,47.23-.68,4.5,13.27-1.4,44.71.94,60.72.99,6.76,4.29,12.19,8.53,16.94,2.19,2.45,4.43,4.11,6.88,6.28"/>
  <path d="M785.17,585.87c5.16,7.34,9.38,11.66,13.96,17.71-17.31,0-32.38.64-51.19,0,5.19-6.02,12.49-10.69,13.86-19.35,3.17-19.98-2.33-46.77.3-67.52.45-1.29,17.9-9.87,19.45-10.01,2.06-.19,2.37.83,3.62,2.1v77.07Z"/>
  <path d="M767.7,462.14c25.05-4.36,27.86,30.3,4.04,31.56-17.7.94-23.68-28.15-4.04-31.56Z"/>
  <path class="cls-2" d="M1085.73,608.49c4.07-.99,32.08,9.67,35.97,12.89,7.79,6.44,6.34,17.47-2.61,21.94-13.54,6.75-44.51,5.68-49.07-12.33-2.08-8.23,8.44-20.74,15.71-22.51Z"/>
  <g>
    <path d="M1200.9,530.38c-.09,11.44-9.21,20.44-20.64,20.35-11.15-.08-20.17-9.3-20.08-20.53.09-11.27,9.3-20.3,20.62-20.2,11.04.09,20.19,9.36,20.11,20.38ZM1198.38,530.42c-.08-10.19-8.25-17.97-17.99-17.89-10.37.09-18.13,8.8-17.69,18.64.42,9.39,8.37,17.49,18.68,17.02,9.37-.43,16.92-8.13,17-17.78Z"/>
    <path d="M1176.95,532.88v8.21h-3.7v-21.38c.12-.02.25-.05.38-.05,2.57,0,5.14-.07,7.7.04,1.19.05,2.42.29,3.54.7,2.29.83,3.43,2.62,3.62,5.01.24,2.94-.88,5.15-3.6,6.45-.07.03-.13.08-.27.17,1.61,2.98,3.21,5.96,4.86,9.03-.24.03-.39.07-.53.07-1.02,0-2.03-.02-3.05,0-.37,0-.56-.11-.73-.44-1.25-2.44-2.54-4.86-3.79-7.31-.2-.4-.45-.53-.88-.52-1.15.03-2.3,0-3.56,0ZM1176.99,529.79c1.59,0,3.14.11,4.68-.03,1.97-.17,3.13-1.57,3.13-3.48,0-2.04-1.07-3.31-3.12-3.52-1.28-.13-2.58-.07-3.87-.1-.27,0-.54,0-.81,0v7.13Z"/>
  </g>
  <text class="cls-1" transform="translate(747.94 657.15)"><tspan x="0" y="0">Where We Creat Ideas</tspan></text>
</svg>